<svg width="430" height="434" viewBox="0 0 430 434" fill="none" xmlns="http://www.w3.org/2000/svg">
<path d="M164.362 164.256C157.71 158.695 148.13 159.403 142.514 165.268C141.088 166.166 139.704 167.179 138.58 168.541C132.704 175.662 134.482 186.777 141.334 192.594C159.142 207.712 182.21 179.175 164.362 164.256Z" fill="#CD113B"/>
<path d="M269.025 230.208C267.913 230.362 266.867 230.711 265.821 231.057C265.476 231.118 265.143 231.235 264.798 231.328C264.771 231.34 264.74 231.347 264.713 231.358C260.936 232.415 257.36 235.309 255.355 239.331C255.346 239.346 255.351 239.362 255.341 239.377C252.347 244.348 251.675 250.574 254.945 256.246C255.119 256.549 255.381 256.758 255.573 257.046C257.784 261.767 261.495 265.805 266.579 267.687C278.449 272.078 292.021 264.432 293.218 251.498C294.44 238.324 281.46 228.489 269.025 230.208Z" fill="#CD113B"/>
<path d="M428.9 186.517C431.299 183.159 429.287 178.62 426.291 176.565C414.517 168.493 396.676 158.883 381.037 155.629C391.247 144.875 399.795 131.388 408.555 119.962C411.456 116.179 407.516 110.433 403.181 110.601C395.205 110.909 387.224 111.156 379.253 111.567C371.722 111.955 363.343 113.544 355.907 112.084C355.342 111.973 354.831 112.04 354.303 112.05C358.815 100.199 362.808 88.109 366.909 76.118C369.011 69.968 372.642 60.607 364.441 57.009C356.743 53.629 342.325 60.737 334.97 62.902C328.834 64.709 322.693 66.756 316.601 68.916C315.568 69.186 314.539 69.457 313.508 69.727C315.015 54.588 315.606 39.379 314.719 24.16C314.469 19.874 309.45 15.815 305.332 18.772C291.442 28.754 277.47 38.972 264.303 49.966C259.484 34.823 254.171 19.789 248.916 4.83397C247.507 0.824968 241.4 -2.14603 238.192 2.00197C230.22 12.303 219.812 23.216 212.759 34.916C204.427 22.982 193.674 11.928 184.274 2.14597C180.64 -1.63303 174.384 0.367968 172.929 5.13997C167.87 21.748 161.011 37.399 153.945 53.176C150.46 50.249 146.91 47.372 143.639 44.38C135.607 37.035 127.845 29.404 120.185 21.674C117.564 19.03 111.859 19.139 110.177 22.963C105.505 33.603 107 45.983 107.836 57.341C108.152 61.645 108.183 67.366 108.875 72.854C95.9491 67.856 82.8691 63.176 69.9871 58.292C64.9371 56.379 60.6201 61.996 61.7141 66.563C65.5191 82.425 68.9121 98.719 74.3651 114.176C59.1581 113.058 44.1401 111.926 29.0241 108.848C23.7091 107.766 18.2291 113.395 21.5461 118.572C29.4671 130.921 38.1121 144.104 48.1731 155.554C43.7741 157.216 39.4801 159.299 35.2911 161.122C24.5121 165.813 13.9811 171.004 3.63106 176.576C-1.54794 179.365 -0.862943 186.537 3.63106 189.484C15.0361 196.963 26.0761 204.957 37.1511 212.899C25.9201 221.881 14.9151 231.128 3.31506 239.657C-1.32594 243.07 -0.912943 250.078 4.92306 251.971C14.0291 254.925 23.0801 258.037 32.0371 261.416C37.0751 263.316 42.1121 265.684 47.2201 267.715C38.1291 280.184 30.2311 293.598 21.5451 306.329C18.4991 310.79 22.5591 316.8 27.5561 316.806C42.5671 316.825 57.547 317.325 72.534 317.822C69.153 331.61 66.1181 345.491 62.6421 359.259C61.4361 364.024 66.0331 369.82 71.2391 367.859C81.1051 364.141 90.9711 360.425 100.839 356.707C103.678 355.637 107.536 354.682 111.207 353.393C108.897 369.73 109.311 386.913 107.865 403.172C107.473 407.599 112.408 410.556 116.266 409.571C125.873 407.115 132.53 399.976 140.499 394.438C145.806 390.752 152.06 387.871 157.693 384.375C161.271 399.352 167.402 414.226 171.332 428.927C173.014 435.231 180.93 435.413 184.316 430.624C193.434 417.723 203.471 404.593 211.444 390.829C213.582 394.26 215.887 397.604 218.054 400.939C223.694 409.615 229.356 418.295 235.252 426.799C237.973 430.726 244.854 431.898 247.297 426.799C253.371 414.116 259.009 401.085 264.296 387.958C267.607 391.619 271.028 395.096 274.356 398.058C281.923 404.794 295.025 417.463 305.838 414.392C307.765 413.846 308.824 412.356 309.467 410.693C310.181 409.905 310.736 409.018 310.9 408.006C313.767 390.426 316.088 372.272 315.917 354.359C321.104 357.022 326.681 359.163 331.929 361.234C341.863 365.155 351.844 368.956 361.803 372.809C366.404 374.59 371.917 369.099 370.123 364.489C366.473 355.118 362.786 345.812 359.806 336.197C358.153 330.867 356.88 325.341 355.305 319.944L354.965 315.318C370.288 316.941 386.454 315.948 401.539 316.168C406.741 316.244 410.612 310.023 407.662 305.498C400.066 293.836 392.695 279.633 383.391 268.347C387.694 267.051 391.933 265.312 396.051 263.913C405.002 260.87 413.87 257.625 422.743 254.366C428.581 252.221 430.347 244.208 424.521 240.759C412.745 233.785 401.803 226.001 390.923 217.974C404.765 209.243 419.629 199.489 428.9 186.517ZM137.49 223.502C134.075 221.849 130.629 219.683 127.129 216.569C101.808 194.023 104.326 148.93 138.683 137.17C170.623 126.236 207.182 147.228 199.814 184.237C193.664 215.121 164.665 224.006 137.49 223.502ZM180.891 293.879C173.457 293.643 165.942 294.166 158.621 294.771C154.31 295.127 149.727 295.433 145.206 296.029C186.043 244.301 217.261 187.967 250.358 131.786C256.454 131.436 262.533 130.902 268.634 130.201C232.957 179.681 203.364 238.656 180.891 293.879ZM271.054 294.853C260.085 295.67 250.39 293.892 242.692 289.142C224.421 270.538 219.903 240.277 239.324 219.132C261.203 195.308 300.491 200.853 314.627 229.793C329.913 261.085 302.676 292.496 271.054 294.853Z" fill="#CD113B"/>
<path d="M267.77 372.764C267.828 372.764 267.828 372.673 267.77 372.673Z" fill="#CD113B"/>
</svg>
